<mxfile host="app.diagrams.net" agent="Mozilla/5.0 (Windows NT 10.0; Win64; x64; rv:140.0) Gecko/20100101 Firefox/140.0" version="28.2.7">
  <diagram name="StrÃ¡nka-1" id="NvlkFEl_IuNBDxlZ3vb5">
    <mxGraphModel dx="1832" dy="894" grid="1" gridSize="10" guides="1" tooltips="1" connect="1" arrows="1" fold="1" page="1" pageScale="1" pageWidth="827" pageHeight="1169" math="0" shadow="0">
      <root>
        <mxCell id="0" />
        <mxCell id="1" parent="0" />
        <mxCell id="l05Y0JOyOo_QPurr2l5D-45" value="" style="group" parent="1" vertex="1" connectable="0">
          <mxGeometry x="340" y="120" width="370" height="620" as="geometry" />
        </mxCell>
        <UserObject label="" id="l05Y0JOyOo_QPurr2l5D-7">
          <mxCell style="rounded=1;whiteSpace=wrap;html=1;sketch=1;curveFitting=1;jiggle=2;glass=0;shadow=1;arcSize=4;strokeColor=light-dark(#000000,#8A8A8A);" parent="l05Y0JOyOo_QPurr2l5D-45" vertex="1">
            <mxGeometry y="40" width="370" height="580" as="geometry" />
          </mxCell>
        </UserObject>
        <mxCell id="l05Y0JOyOo_QPurr2l5D-6" value="" style="image;html=1;image=img/lib/clip_art/general/Full_Folder_128x128.png;shadow=0;imageBackground=default;" parent="l05Y0JOyOo_QPurr2l5D-45" vertex="1">
          <mxGeometry x="29" width="80" height="80" as="geometry" />
        </mxCell>
        <mxCell id="l05Y0JOyOo_QPurr2l5D-11" style="edgeStyle=orthogonalEdgeStyle;rounded=0;orthogonalLoop=1;jettySize=auto;html=1;entryX=0;entryY=0.5;entryDx=0;entryDy=0;endArrow=none;endFill=0;strokeWidth=1;exitX=0.5;exitY=1;exitDx=0;exitDy=0;" parent="l05Y0JOyOo_QPurr2l5D-45" source="l05Y0JOyOo_QPurr2l5D-32" target="l05Y0JOyOo_QPurr2l5D-10" edge="1">
          <mxGeometry relative="1" as="geometry">
            <mxPoint x="50.5" y="110" as="sourcePoint" />
            <Array as="points">
              <mxPoint x="51" y="140" />
            </Array>
          </mxGeometry>
        </mxCell>
        <mxCell id="l05Y0JOyOo_QPurr2l5D-17" style="edgeStyle=orthogonalEdgeStyle;rounded=0;orthogonalLoop=1;jettySize=auto;html=1;exitX=0.5;exitY=1;exitDx=0;exitDy=0;entryX=0;entryY=0.5;entryDx=0;entryDy=0;endArrow=none;endFill=0;" parent="l05Y0JOyOo_QPurr2l5D-45" source="l05Y0JOyOo_QPurr2l5D-10" target="l05Y0JOyOo_QPurr2l5D-16" edge="1">
          <mxGeometry relative="1" as="geometry" />
        </mxCell>
        <mxCell id="l05Y0JOyOo_QPurr2l5D-24" style="edgeStyle=orthogonalEdgeStyle;rounded=0;orthogonalLoop=1;jettySize=auto;html=1;exitX=0.5;exitY=1;exitDx=0;exitDy=0;entryX=0;entryY=0.5;entryDx=0;entryDy=0;endArrow=none;endFill=0;" parent="l05Y0JOyOo_QPurr2l5D-45" source="l05Y0JOyOo_QPurr2l5D-10" target="l05Y0JOyOo_QPurr2l5D-23" edge="1">
          <mxGeometry relative="1" as="geometry" />
        </mxCell>
        <mxCell id="l05Y0JOyOo_QPurr2l5D-28" style="edgeStyle=orthogonalEdgeStyle;rounded=0;orthogonalLoop=1;jettySize=auto;html=1;exitX=0.5;exitY=1;exitDx=0;exitDy=0;entryX=0;entryY=0.5;entryDx=0;entryDy=0;endArrow=none;endFill=0;" parent="l05Y0JOyOo_QPurr2l5D-45" source="l05Y0JOyOo_QPurr2l5D-10" target="l05Y0JOyOo_QPurr2l5D-27" edge="1">
          <mxGeometry relative="1" as="geometry" />
        </mxCell>
        <mxCell id="l05Y0JOyOo_QPurr2l5D-10" value="&lt;font&gt;&lt;span&gt;uc200-m12-vypenovaky&lt;/span&gt;&lt;/font&gt;" style="image;html=1;image=img/lib/clip_art/general/Full_Folder_128x128.png;direction=east;collapsible=0;movableLabel=1;align=left;fontSize=12;fontStyle=1;fontFamily=Lucida Console;" parent="l05Y0JOyOo_QPurr2l5D-45" vertex="1">
          <mxGeometry x="79" y="130" width="21" height="20" as="geometry">
            <mxRectangle x="670" y="230" width="70" height="30" as="alternateBounds" />
            <mxPoint x="29" y="-20" as="offset" />
          </mxGeometry>
        </mxCell>
        <mxCell id="l05Y0JOyOo_QPurr2l5D-12" value="&lt;font face=&quot;Lucida Console&quot;&gt;result-cam1.csv&lt;/font&gt;" style="shape=image;html=1;verticalAlign=top;verticalLabelPosition=bottom;labelBackgroundColor=#ffffff;imageAspect=0;aspect=fixed;image=https://icons.diagrams.net/icon-cache1/CAD_Database_Presentation_Spreadsheet_Vector_file_format-2933/19-1270.svg;movableLabel=1;align=left;" parent="l05Y0JOyOo_QPurr2l5D-45" vertex="1">
          <mxGeometry x="157.52999999999997" y="410" width="21" height="21" as="geometry">
            <mxPoint x="22" y="-21" as="offset" />
          </mxGeometry>
        </mxCell>
        <mxCell id="l05Y0JOyOo_QPurr2l5D-14" value="&lt;font face=&quot;Lucida Console&quot;&gt;foto0001.png&lt;/font&gt;" style="shape=image;html=1;verticalAlign=top;verticalLabelPosition=bottom;labelBackgroundColor=#ffffff;imageAspect=0;aspect=fixed;image=https://icons.diagrams.net/icon-cache1/File_extensions-2393/jpgs-1186.svg;movableLabel=1;align=left;" parent="l05Y0JOyOo_QPurr2l5D-45" vertex="1">
          <mxGeometry x="160" y="209" width="16.06" height="21" as="geometry">
            <mxPoint x="22" y="-21" as="offset" />
          </mxGeometry>
        </mxCell>
        <mxCell id="l05Y0JOyOo_QPurr2l5D-18" style="edgeStyle=orthogonalEdgeStyle;rounded=0;orthogonalLoop=1;jettySize=auto;html=1;exitX=0.5;exitY=1;exitDx=0;exitDy=0;entryX=0;entryY=0.5;entryDx=0;entryDy=0;endArrow=none;endFill=0;" parent="l05Y0JOyOo_QPurr2l5D-45" source="l05Y0JOyOo_QPurr2l5D-16" target="l05Y0JOyOo_QPurr2l5D-14" edge="1">
          <mxGeometry relative="1" as="geometry" />
        </mxCell>
        <mxCell id="l05Y0JOyOo_QPurr2l5D-22" style="edgeStyle=orthogonalEdgeStyle;rounded=0;orthogonalLoop=1;jettySize=auto;html=1;exitX=0.5;exitY=1;exitDx=0;exitDy=0;entryX=0;entryY=0.5;entryDx=0;entryDy=0;endArrow=none;endFill=0;" parent="l05Y0JOyOo_QPurr2l5D-45" source="l05Y0JOyOo_QPurr2l5D-16" target="l05Y0JOyOo_QPurr2l5D-21" edge="1">
          <mxGeometry relative="1" as="geometry" />
        </mxCell>
        <mxCell id="l05Y0JOyOo_QPurr2l5D-16" value="&lt;font&gt;dataset-test&lt;/font&gt;" style="image;html=1;image=img/lib/clip_art/general/Full_Folder_128x128.png;direction=east;collapsible=0;movableLabel=1;align=left;fontSize=12;fontStyle=0;fontFamily=Lucida Console;" parent="l05Y0JOyOo_QPurr2l5D-45" vertex="1">
          <mxGeometry x="120" y="170" width="21" height="20" as="geometry">
            <mxRectangle x="670" y="230" width="70" height="30" as="alternateBounds" />
            <mxPoint x="29" y="-20" as="offset" />
          </mxGeometry>
        </mxCell>
        <mxCell id="l05Y0JOyOo_QPurr2l5D-21" value="&lt;font face=&quot;Lucida Console&quot;&gt;foto0002.png&lt;/font&gt;" style="shape=image;html=1;verticalAlign=top;verticalLabelPosition=bottom;labelBackgroundColor=#ffffff;imageAspect=0;aspect=fixed;image=https://icons.diagrams.net/icon-cache1/File_extensions-2393/jpgs-1186.svg;movableLabel=1;align=left;" parent="l05Y0JOyOo_QPurr2l5D-45" vertex="1">
          <mxGeometry x="160" y="249" width="16.06" height="21" as="geometry">
            <mxPoint x="22" y="-21" as="offset" />
          </mxGeometry>
        </mxCell>
        <mxCell id="l05Y0JOyOo_QPurr2l5D-26" style="edgeStyle=orthogonalEdgeStyle;rounded=0;orthogonalLoop=1;jettySize=auto;html=1;exitX=0.5;exitY=1;exitDx=0;exitDy=0;entryX=0;entryY=0.5;entryDx=0;entryDy=0;endArrow=none;endFill=0;" parent="l05Y0JOyOo_QPurr2l5D-45" source="l05Y0JOyOo_QPurr2l5D-23" target="l05Y0JOyOo_QPurr2l5D-25" edge="1">
          <mxGeometry relative="1" as="geometry" />
        </mxCell>
        <mxCell id="l05Y0JOyOo_QPurr2l5D-23" value="foto-nok" style="image;html=1;image=img/lib/clip_art/general/Full_Folder_128x128.png;direction=east;collapsible=0;movableLabel=1;align=left;fontSize=12;fontStyle=0;fontFamily=Lucida Console;" parent="l05Y0JOyOo_QPurr2l5D-45" vertex="1">
          <mxGeometry x="120" y="290" width="21" height="20" as="geometry">
            <mxRectangle x="670" y="230" width="70" height="30" as="alternateBounds" />
            <mxPoint x="29" y="-20" as="offset" />
          </mxGeometry>
        </mxCell>
        <mxCell id="l05Y0JOyOo_QPurr2l5D-25" value="&lt;font face=&quot;Lucida Console&quot;&gt;&lt;font&gt;cam1-KNR12345-NOK.png&lt;/font&gt;&lt;/font&gt;" style="shape=image;html=1;verticalAlign=top;verticalLabelPosition=bottom;labelBackgroundColor=#ffffff;imageAspect=0;aspect=fixed;image=https://icons.diagrams.net/icon-cache1/File_extensions-2393/jpgs-1186.svg;movableLabel=1;align=left;" parent="l05Y0JOyOo_QPurr2l5D-45" vertex="1">
          <mxGeometry x="160" y="330" width="16.06" height="21" as="geometry">
            <mxPoint x="22" y="-21" as="offset" />
          </mxGeometry>
        </mxCell>
        <mxCell id="l05Y0JOyOo_QPurr2l5D-29" style="edgeStyle=orthogonalEdgeStyle;rounded=0;orthogonalLoop=1;jettySize=auto;html=1;exitX=0.5;exitY=1;exitDx=0;exitDy=0;entryX=0;entryY=0.5;entryDx=0;entryDy=0;endArrow=none;endFill=0;" parent="l05Y0JOyOo_QPurr2l5D-45" source="l05Y0JOyOo_QPurr2l5D-27" target="l05Y0JOyOo_QPurr2l5D-12" edge="1">
          <mxGeometry relative="1" as="geometry" />
        </mxCell>
        <mxCell id="l05Y0JOyOo_QPurr2l5D-31" style="edgeStyle=orthogonalEdgeStyle;rounded=0;orthogonalLoop=1;jettySize=auto;html=1;exitX=0.5;exitY=1;exitDx=0;exitDy=0;entryX=0;entryY=0.5;entryDx=0;entryDy=0;endArrow=none;endFill=0;" parent="l05Y0JOyOo_QPurr2l5D-45" source="l05Y0JOyOo_QPurr2l5D-27" target="l05Y0JOyOo_QPurr2l5D-30" edge="1">
          <mxGeometry relative="1" as="geometry" />
        </mxCell>
        <mxCell id="l05Y0JOyOo_QPurr2l5D-27" value="splunk" style="image;html=1;image=img/lib/clip_art/general/Full_Folder_128x128.png;direction=east;collapsible=0;movableLabel=1;align=left;fontSize=12;fontStyle=0;fontFamily=Lucida Console;" parent="l05Y0JOyOo_QPurr2l5D-45" vertex="1">
          <mxGeometry x="120" y="370" width="21" height="20" as="geometry">
            <mxRectangle x="670" y="230" width="70" height="30" as="alternateBounds" />
            <mxPoint x="29" y="-20" as="offset" />
          </mxGeometry>
        </mxCell>
        <mxCell id="l05Y0JOyOo_QPurr2l5D-30" value="&lt;font face=&quot;Lucida Console&quot;&gt;result-cam2.csv&lt;/font&gt;" style="shape=image;html=1;verticalAlign=top;verticalLabelPosition=bottom;labelBackgroundColor=#ffffff;imageAspect=0;aspect=fixed;image=https://icons.diagrams.net/icon-cache1/CAD_Database_Presentation_Spreadsheet_Vector_file_format-2933/19-1270.svg;movableLabel=1;align=left;" parent="l05Y0JOyOo_QPurr2l5D-45" vertex="1">
          <mxGeometry x="157.52999999999997" y="450" width="21" height="21" as="geometry">
            <mxPoint x="22" y="-21" as="offset" />
          </mxGeometry>
        </mxCell>
        <mxCell id="l05Y0JOyOo_QPurr2l5D-34" style="edgeStyle=orthogonalEdgeStyle;rounded=0;orthogonalLoop=1;jettySize=auto;html=1;exitX=0.5;exitY=1;exitDx=0;exitDy=0;entryX=0;entryY=0.5;entryDx=0;entryDy=0;endArrow=none;endFill=0;" parent="l05Y0JOyOo_QPurr2l5D-45" source="l05Y0JOyOo_QPurr2l5D-32" target="l05Y0JOyOo_QPurr2l5D-33" edge="1">
          <mxGeometry relative="1" as="geometry" />
        </mxCell>
        <mxCell id="l05Y0JOyOo_QPurr2l5D-32" value="/data" style="image;html=1;image=img/lib/clip_art/general/Full_Folder_128x128.png;direction=east;collapsible=0;movableLabel=1;align=left;fontSize=12;fontStyle=0;fontFamily=Lucida Console;" parent="l05Y0JOyOo_QPurr2l5D-45" vertex="1">
          <mxGeometry x="40" y="90" width="21" height="20" as="geometry">
            <mxRectangle x="670" y="230" width="70" height="30" as="alternateBounds" />
            <mxPoint x="29" y="-20" as="offset" />
          </mxGeometry>
        </mxCell>
        <mxCell id="l05Y0JOyOo_QPurr2l5D-38" style="edgeStyle=orthogonalEdgeStyle;rounded=0;orthogonalLoop=1;jettySize=auto;html=1;exitX=0.5;exitY=1;exitDx=0;exitDy=0;entryX=0;entryY=0.5;entryDx=0;entryDy=0;endArrow=none;endFill=0;" parent="l05Y0JOyOo_QPurr2l5D-45" source="l05Y0JOyOo_QPurr2l5D-33" target="l05Y0JOyOo_QPurr2l5D-35" edge="1">
          <mxGeometry relative="1" as="geometry" />
        </mxCell>
        <mxCell id="l05Y0JOyOo_QPurr2l5D-33" value="&lt;font face=&quot;Lucida Console&quot;&gt;&lt;span&gt;uc350-h1-valecky&lt;/span&gt;&lt;/font&gt;" style="image;html=1;image=img/lib/clip_art/general/Full_Folder_128x128.png;direction=east;collapsible=0;movableLabel=1;align=left;fontSize=12;fontStyle=1;fontFamily=Lucida Console;" parent="l05Y0JOyOo_QPurr2l5D-45" vertex="1">
          <mxGeometry x="79" y="490" width="21" height="20" as="geometry">
            <mxRectangle x="670" y="230" width="70" height="30" as="alternateBounds" />
            <mxPoint x="29" y="-20" as="offset" />
          </mxGeometry>
        </mxCell>
        <mxCell id="l05Y0JOyOo_QPurr2l5D-39" style="edgeStyle=orthogonalEdgeStyle;rounded=0;orthogonalLoop=1;jettySize=auto;html=1;exitX=0.5;exitY=1;exitDx=0;exitDy=0;entryX=0;entryY=0.5;entryDx=0;entryDy=0;endArrow=none;endFill=0;" parent="l05Y0JOyOo_QPurr2l5D-45" source="l05Y0JOyOo_QPurr2l5D-35" target="l05Y0JOyOo_QPurr2l5D-36" edge="1">
          <mxGeometry relative="1" as="geometry" />
        </mxCell>
        <mxCell id="l05Y0JOyOo_QPurr2l5D-35" value="splunk" style="image;html=1;image=img/lib/clip_art/general/Full_Folder_128x128.png;direction=east;collapsible=0;movableLabel=1;align=left;fontSize=12;fontStyle=0;fontFamily=Lucida Console;" parent="l05Y0JOyOo_QPurr2l5D-45" vertex="1">
          <mxGeometry x="120" y="530" width="21" height="20" as="geometry">
            <mxRectangle x="670" y="230" width="70" height="30" as="alternateBounds" />
            <mxPoint x="29" y="-20" as="offset" />
          </mxGeometry>
        </mxCell>
        <mxCell id="l05Y0JOyOo_QPurr2l5D-36" value="&lt;font face=&quot;Lucida Console&quot;&gt;result-cam1.csv&lt;/font&gt;" style="shape=image;html=1;verticalAlign=top;verticalLabelPosition=bottom;labelBackgroundColor=#ffffff;imageAspect=0;aspect=fixed;image=https://icons.diagrams.net/icon-cache1/CAD_Database_Presentation_Spreadsheet_Vector_file_format-2933/19-1270.svg;movableLabel=1;align=left;" parent="l05Y0JOyOo_QPurr2l5D-45" vertex="1">
          <mxGeometry x="157.52999999999997" y="570" width="21" height="21" as="geometry">
            <mxPoint x="22" y="-21" as="offset" />
          </mxGeometry>
        </mxCell>
        <mxCell id="jOVOhjrjnYLb1VQ-Lehl-3" value="&lt;div&gt;Vision Team&lt;/div&gt;&lt;div&gt;Admin&lt;/div&gt;" style="outlineConnect=0;dashed=0;verticalLabelPosition=bottom;verticalAlign=top;align=center;html=1;fontSize=12;fontStyle=0;aspect=fixed;shape=mxgraph.aws4.resourceIcon;resIcon=mxgraph.aws4.user;fillColor=none;strokeColor=#6c8ebf;fontFamily=Lucida Console;shadow=1;strokeWidth=1;perimeterSpacing=0;textShadow=0;" parent="1" vertex="1">
          <mxGeometry x="39" y="120" width="60" height="60" as="geometry" />
        </mxCell>
        <mxCell id="jOVOhjrjnYLb1VQ-Lehl-4" value="&lt;div&gt;uc200&lt;/div&gt;&lt;div&gt;Citrix-Jump&lt;/div&gt;&lt;div&gt;User&lt;/div&gt;" style="sketch=0;outlineConnect=0;strokeColor=#82b366;fillColor=none;dashed=0;verticalLabelPosition=bottom;verticalAlign=top;align=center;html=1;fontSize=12;fontStyle=0;aspect=fixed;shape=mxgraph.aws4.resourceIcon;resIcon=mxgraph.aws4.user;fontFamily=Lucida Console;shadow=1;" parent="1" vertex="1">
          <mxGeometry x="39" y="230" width="60" height="60" as="geometry" />
        </mxCell>
        <mxCell id="jOVOhjrjnYLb1VQ-Lehl-6" value="" style="endArrow=classic;html=1;rounded=0;entryX=0.004;entryY=0.173;entryDx=0;entryDy=0;entryPerimeter=0;strokeWidth=1;" parent="1" source="jOVOhjrjnYLb1VQ-Lehl-4" target="l05Y0JOyOo_QPurr2l5D-7" edge="1">
          <mxGeometry width="50" height="50" relative="1" as="geometry">
            <mxPoint x="109" y="220" as="sourcePoint" />
            <mxPoint x="369" y="290" as="targetPoint" />
          </mxGeometry>
        </mxCell>
        <mxCell id="jOVOhjrjnYLb1VQ-Lehl-7" value="&lt;div&gt;uc350&lt;/div&gt;&lt;div&gt;Citrix-Jump&lt;/div&gt;&lt;div&gt;User&lt;/div&gt;" style="sketch=0;outlineConnect=0;strokeColor=#82b366;fillColor=none;dashed=0;verticalLabelPosition=bottom;verticalAlign=top;align=center;html=1;fontSize=12;fontStyle=0;aspect=fixed;shape=mxgraph.aws4.resourceIcon;resIcon=mxgraph.aws4.user;fontFamily=Lucida Console;shadow=1;" parent="1" vertex="1">
          <mxGeometry x="39" y="590" width="60" height="60" as="geometry" />
        </mxCell>
        <mxCell id="jOVOhjrjnYLb1VQ-Lehl-11" value="" style="endArrow=classic;html=1;rounded=0;entryX=0;entryY=0.375;entryDx=0;entryDy=0;entryPerimeter=0;" parent="1" source="jOVOhjrjnYLb1VQ-Lehl-3" target="l05Y0JOyOo_QPurr2l5D-6" edge="1">
          <mxGeometry width="50" height="50" relative="1" as="geometry">
            <mxPoint x="269" y="380" as="sourcePoint" />
            <mxPoint x="549" y="50" as="targetPoint" />
          </mxGeometry>
        </mxCell>
        <mxCell id="Uo8Exwr8U9G8sdFs6WFi-1" value="" style="endArrow=none;dashed=1;html=1;dashPattern=1 2;strokeWidth=2;rounded=0;exitX=1;exitY=0.5;exitDx=0;exitDy=0;exitPerimeter=0;entryX=-0.003;entryY=0.184;entryDx=0;entryDy=0;entryPerimeter=0;strokeColor=light-dark(#4A890C,#4A890C);" parent="1" source="jOVOhjrjnYLb1VQ-Lehl-10" target="l05Y0JOyOo_QPurr2l5D-7" edge="1">
          <mxGeometry width="50" height="50" relative="1" as="geometry">
            <mxPoint x="269" y="360" as="sourcePoint" />
            <mxPoint x="349" y="330" as="targetPoint" />
          </mxGeometry>
        </mxCell>
        <mxCell id="Uo8Exwr8U9G8sdFs6WFi-3" value="" style="endArrow=none;dashed=1;html=1;dashPattern=1 2;strokeWidth=2;rounded=0;exitX=1;exitY=0.5;exitDx=0;exitDy=0;exitPerimeter=0;entryX=-0.001;entryY=0.191;entryDx=0;entryDy=0;entryPerimeter=0;strokeColor=light-dark(#4A890C,#4A890C);" parent="1" source="Uo8Exwr8U9G8sdFs6WFi-2" target="l05Y0JOyOo_QPurr2l5D-7" edge="1">
          <mxGeometry width="50" height="50" relative="1" as="geometry">
            <mxPoint x="309" y="370" as="sourcePoint" />
            <mxPoint x="349" y="360" as="targetPoint" />
          </mxGeometry>
        </mxCell>
        <mxCell id="Uo8Exwr8U9G8sdFs6WFi-4" value="" style="endArrow=classic;html=1;rounded=0;exitX=1;exitY=0.5;exitDx=0;exitDy=0;exitPerimeter=0;entryX=-0.001;entryY=0.789;entryDx=0;entryDy=0;entryPerimeter=0;" parent="1" source="jOVOhjrjnYLb1VQ-Lehl-7" target="l05Y0JOyOo_QPurr2l5D-7" edge="1">
          <mxGeometry width="50" height="50" relative="1" as="geometry">
            <mxPoint x="269" y="360" as="sourcePoint" />
            <mxPoint x="359" y="400" as="targetPoint" />
          </mxGeometry>
        </mxCell>
        <mxCell id="Uo8Exwr8U9G8sdFs6WFi-6" value="" style="endArrow=none;dashed=1;html=1;dashPattern=1 2;strokeWidth=2;rounded=0;exitX=1;exitY=0.5;exitDx=0;exitDy=0;exitPerimeter=0;entryX=-0.003;entryY=0.807;entryDx=0;entryDy=0;entryPerimeter=0;fillColor=#d5e8d4;strokeColor=light-dark(#4A890C,#4A890C);gradientColor=#97d077;" parent="1" source="Uo8Exwr8U9G8sdFs6WFi-5" target="l05Y0JOyOo_QPurr2l5D-7" edge="1">
          <mxGeometry width="50" height="50" relative="1" as="geometry">
            <mxPoint x="269" y="360" as="sourcePoint" />
            <mxPoint x="359" y="450" as="targetPoint" />
          </mxGeometry>
        </mxCell>
        <mxCell id="Uo8Exwr8U9G8sdFs6WFi-10" value="&lt;div align=&quot;left&quot;&gt;&lt;font style=&quot;font-size: 16px;&quot;&gt;SloÅ¾kovÃ¡ struktura ÃºloÅ¾iÅ¡tÄ VisionSFTP&lt;/font&gt;&lt;/div&gt;&lt;div&gt;&lt;br&gt;&lt;/div&gt;&lt;div&gt;Logika uÅ¾ivatelskÃ½ch ÃºÄtÅ¯&lt;/div&gt;" style="text;html=1;align=left;verticalAlign=middle;whiteSpace=wrap;rounded=0;fontFamily=Lucida Console;" parent="1" vertex="1">
          <mxGeometry x="20" y="10" width="420" height="60" as="geometry" />
        </mxCell>
        <mxCell id="l05Y0JOyOo_QPurr2l5D-1" value="" style="endArrow=classic;html=1;rounded=0;" parent="1" edge="1">
          <mxGeometry width="50" height="50" relative="1" as="geometry">
            <mxPoint x="480" y="24.659999999999968" as="sourcePoint" />
            <mxPoint x="540" y="24.659999999999968" as="targetPoint" />
          </mxGeometry>
        </mxCell>
        <mxCell id="l05Y0JOyOo_QPurr2l5D-2" value="Citrix-Jump" style="text;strokeColor=none;fillColor=none;align=left;verticalAlign=middle;spacingLeft=4;spacingRight=4;overflow=hidden;points=[[0,0.5],[1,0.5]];portConstraint=eastwest;rotatable=0;whiteSpace=wrap;html=1;fontFamily=Lucida Console;" parent="1" vertex="1">
          <mxGeometry x="574" y="10" width="145" height="30" as="geometry" />
        </mxCell>
        <mxCell id="l05Y0JOyOo_QPurr2l5D-3" value="" style="endArrow=none;dashed=1;html=1;dashPattern=1 2;strokeWidth=2;rounded=0;fontColor=default;strokeColor=light-dark(#4A890C,#4A890C);" parent="1" edge="1">
          <mxGeometry width="50" height="50" relative="1" as="geometry">
            <mxPoint x="480" y="55" as="sourcePoint" />
            <mxPoint x="540" y="55" as="targetPoint" />
          </mxGeometry>
        </mxCell>
        <mxCell id="l05Y0JOyOo_QPurr2l5D-4" value="SFTP connection" style="text;strokeColor=none;fillColor=none;align=left;verticalAlign=middle;spacingLeft=4;spacingRight=4;overflow=hidden;points=[[0,0.5],[1,0.5]];portConstraint=eastwest;rotatable=0;whiteSpace=wrap;html=1;fontFamily=Lucida Console;" parent="1" vertex="1">
          <mxGeometry x="574" y="40" width="145" height="30" as="geometry" />
        </mxCell>
        <mxCell id="l05Y0JOyOo_QPurr2l5D-42" value="" style="group" parent="1" vertex="1" connectable="0">
          <mxGeometry x="119" y="280" width="144" height="30" as="geometry" />
        </mxCell>
        <UserObject label="b" tooltip="" id="jOVOhjrjnYLb1VQ-Lehl-10">
          <mxCell style="points=[[0,0.5,0],[0.19,0.02,0],[0.59,0,0],[0.985,0.02,0],[1,0.5,0],[0.985,0.98,0],[0.59,1,0],[0.19,0.98,0]];verticalLabelPosition=bottom;sketch=0;html=1;verticalAlign=top;aspect=fixed;align=center;pointerEvents=1;shape=mxgraph.cisco19.camera;fillColor=#60a917;strokeColor=#2D7600;fontColor=#ffffff;shadow=1;" parent="l05Y0JOyOo_QPurr2l5D-42" vertex="1">
            <mxGeometry x="90" width="54" height="30" as="geometry" />
          </mxCell>
        </UserObject>
        <mxCell id="Uo8Exwr8U9G8sdFs6WFi-7" value="&lt;div&gt;uc200-cam1&lt;/div&gt;" style="text;html=1;align=center;verticalAlign=middle;resizable=0;points=[];autosize=1;fontColor=light-dark(#4A890C,#4A890C);fontFamily=Lucida Console;" parent="l05Y0JOyOo_QPurr2l5D-42" vertex="1">
          <mxGeometry x="-5" width="100" height="30" as="geometry" />
        </mxCell>
        <mxCell id="l05Y0JOyOo_QPurr2l5D-43" value="" style="group;fontFamily=Lucida Console;" parent="1" vertex="1" connectable="0">
          <mxGeometry x="119" y="320" width="144" height="30" as="geometry" />
        </mxCell>
        <UserObject label="b" tooltip="" id="Uo8Exwr8U9G8sdFs6WFi-2">
          <mxCell style="points=[[0,0.5,0],[0.19,0.02,0],[0.59,0,0],[0.985,0.02,0],[1,0.5,0],[0.985,0.98,0],[0.59,1,0],[0.19,0.98,0]];verticalLabelPosition=bottom;sketch=0;html=1;verticalAlign=top;aspect=fixed;align=center;pointerEvents=1;shape=mxgraph.cisco19.camera;fillColor=#60a917;strokeColor=#2D7600;fontColor=#ffffff;shadow=1;" parent="l05Y0JOyOo_QPurr2l5D-43" vertex="1">
            <mxGeometry x="90" width="54" height="30" as="geometry" />
          </mxCell>
        </UserObject>
        <mxCell id="Uo8Exwr8U9G8sdFs6WFi-8" value="&lt;div&gt;uc200-cam2&lt;/div&gt;" style="text;html=1;align=center;verticalAlign=middle;resizable=0;points=[];autosize=1;strokeColor=none;fillColor=none;fontColor=light-dark(#4A890C,#4A890C);fontFamily=Lucida Console;" parent="l05Y0JOyOo_QPurr2l5D-43" vertex="1">
          <mxGeometry x="-5" width="100" height="30" as="geometry" />
        </mxCell>
        <mxCell id="l05Y0JOyOo_QPurr2l5D-44" value="" style="group" parent="1" vertex="1" connectable="0">
          <mxGeometry x="119" y="640" width="144" height="30" as="geometry" />
        </mxCell>
        <UserObject label="b" tooltip="" id="Uo8Exwr8U9G8sdFs6WFi-5">
          <mxCell style="points=[[0,0.5,0],[0.19,0.02,0],[0.59,0,0],[0.985,0.02,0],[1,0.5,0],[0.985,0.98,0],[0.59,1,0],[0.19,0.98,0]];verticalLabelPosition=bottom;sketch=0;html=1;verticalAlign=top;aspect=fixed;align=center;pointerEvents=1;shape=mxgraph.cisco19.camera;fillColor=#60a917;strokeColor=#2D7600;fontColor=#ffffff;shadow=1;" parent="l05Y0JOyOo_QPurr2l5D-44" vertex="1">
            <mxGeometry x="90" width="54" height="30" as="geometry" />
          </mxCell>
        </UserObject>
        <mxCell id="Uo8Exwr8U9G8sdFs6WFi-9" value="&lt;div&gt;uc350-cam1&lt;/div&gt;" style="text;html=1;align=center;verticalAlign=middle;resizable=0;points=[];autosize=1;strokeColor=none;fillColor=none;fontColor=light-dark(#4A890C,#4A890C);fontFamily=Lucida Console;" parent="l05Y0JOyOo_QPurr2l5D-44" vertex="1">
          <mxGeometry x="-5" width="100" height="30" as="geometry" />
        </mxCell>
      </root>
    </mxGraphModel>
  </diagram>
</mxfile>
